<svg width="200" height="200" viewBox="0 0 200 200" fill="none" xmlns="http://www.w3.org/2000/svg">
<rect width="200" height="200" rx="8" fill="#64748B"/>
<rect x="20" y="20" width="160" height="160" rx="4" fill="white"/>
<path d="M116.506 80.6456C116.137 76.9216 114.552 74.0286 111.751 71.9666C108.951 69.9046 105.15 68.8736 100.349 68.8736C97.0864 68.8736 94.3319 69.3352 92.0852 70.2585C89.8385 71.151 88.1151 72.3975 86.9148 73.9979C85.7453 75.5982 85.1605 77.4141 85.1605 79.4453C85.099 81.138 85.4529 82.6153 86.2223 83.8771C87.0225 85.139 88.1151 86.2315 89.5 87.1548C90.8849 88.0473 92.4853 88.8321 94.3011 89.5092C96.117 90.1555 98.0559 90.7095 100.118 91.1712L108.612 93.2024C112.736 94.1257 116.522 95.3568 119.969 96.8956C123.416 98.4344 126.401 100.327 128.925 102.574C131.448 104.821 133.403 107.467 134.788 110.514C136.203 113.561 136.927 117.054 136.957 120.994C136.927 126.78 135.449 131.796 132.526 136.043C129.633 140.26 125.447 143.537 119.969 145.876C114.521 148.185 107.951 149.339 100.256 149.339C92.6238 149.339 85.9761 148.169 80.3132 145.83C74.6811 143.491 70.2801 140.029 67.1101 135.443C63.9709 130.827 62.3243 125.118 62.1705 118.316H81.5135C81.7289 121.486 82.6368 124.133 84.2372 126.256C85.8684 128.349 88.0381 129.934 90.7464 131.011C93.4856 132.058 96.5786 132.581 100.026 132.581C103.411 132.581 106.35 132.089 108.843 131.104C111.367 130.119 113.321 128.749 114.706 126.995C116.091 125.241 116.783 123.225 116.783 120.947C116.783 118.824 116.152 117.039 114.891 115.592C113.66 114.146 111.844 112.915 109.443 111.899C107.073 110.884 104.165 109.96 100.718 109.129L90.4233 106.544C82.4522 104.605 76.1584 101.574 71.5419 97.4496C66.9254 93.3255 64.6326 87.7704 64.6634 80.7841C64.6326 75.0597 66.156 70.0585 69.2337 65.7805C72.3421 61.5026 76.6046 58.1634 82.0213 55.7628C87.438 53.3622 93.5933 52.1619 100.487 52.1619C107.504 52.1619 113.629 53.3622 118.861 55.7628C124.124 58.1634 128.217 61.5026 131.141 65.7805C134.064 70.0585 135.572 75.0135 135.665 80.6456H116.506Z" fill="#64748B"/>
</svg>
